<?xml version="1.0" encoding="utf-8"?>
<!-- Generator: Adobe Illustrator 25.2.3, SVG Export Plug-In . SVG Version: 6.00 Build 0)  -->
<svg version="1.1" id="Lager_1" xmlns="http://www.w3.org/2000/svg" xmlns:xlink="http://www.w3.org/1999/xlink" x="0px" y="0px"
	 viewBox="0 0 371.5 409.9" style="enable-background:new 0 0 371.5 409.9;" xml:space="preserve">
<style type="text/css">
	.st0{fill:#8DBA70;}
	.st1{fill:#626464;}
	.st2{fill:#A2CC8B;}
	.st3{fill:#6D6D6C;}
</style>
<polygon class="st0" points="0,151.7 62.1,131.1 51.8,72.7 "/>
<polygon class="st1" points="66.7,130.6 61.4,131.1 51.3,73.8 "/>
<polygon class="st2" points="85.3,194.8 133.9,127 50.8,72.7 "/>
<polygon class="st0" points="246.1,196.9 85.2,194.9 201,33.2 "/>
<polygon class="st1" points="207.6,32.7 201,33.2 246.1,196.9 "/>
<polygon class="st2" points="206.7,32.8 240.2,173.9 371.5,0 "/>
<polygon class="st2" points="85.2,194.2 246.1,196.2 218.4,300.9 "/>
<polygon class="st1" points="221.2,303.4 216.4,299.4 246.1,196.9 "/>
<polygon class="st0" points="208.2,346.7 294.6,409.9 295,390.3 245.8,196.9 "/>
<path class="st3" d="M202.1,237.5"/>
</svg>
