<?xml version="1.0" encoding="UTF-8" standalone="no"?>
<!DOCTYPE svg PUBLIC "-//W3C//DTD SVG 1.1//EN" "http://www.w3.org/Graphics/SVG/1.1/DTD/svg11.dtd">
<svg width="100%" height="100%" viewBox="0 0 868 557" version="1.1" xmlns="http://www.w3.org/2000/svg" xmlns:xlink="http://www.w3.org/1999/xlink" xml:space="preserve" xmlns:serif="http://www.serif.com/" style="fill-rule:evenodd;clip-rule:evenodd;stroke-miterlimit:10;">
    <g id="Layer_2_1_">
        <path d="M65.7,4.5L29.7,22.8L65,42.7L98.4,22.8L65.7,4.5" style="fill:none;fill-rule:nonzero;stroke:rgb(191,191,191);stroke-width:1px;"/>
        <path d="M100.2,103.8L65.2,123.9L65,42.7L98.4,22.8L100.2,103.8Z" style="fill:none;fill-rule:nonzero;stroke:rgb(191,191,191);stroke-width:1px;"/>
        <path d="M136,123.9L100.2,103.8L99.3,62.1L136,83.8L136,123.9Z" style="fill:rgb(244,244,245);fill-rule:nonzero;stroke:rgb(191,191,191);stroke-width:1px;"/>
        <path d="M100.2,143.3L136,123.9L100.2,103.8L65.2,123.9L100.2,143.3Z" style="fill:none;fill-rule:nonzero;stroke:rgb(191,191,191);stroke-width:1px;"/>
        <path d="M29.7,103.8L100.2,143.3L100.2,184.7L30.8,144.2L29.7,103.8Z" style="fill:rgb(244,244,245);fill-rule:nonzero;stroke:rgb(191,191,191);stroke-width:1px;"/>
        <path d="M136,164.8L100.2,184.7L100.2,143.3L136,123.9L136,164.8Z" style="fill:none;fill-rule:nonzero;stroke:rgb(191,191,191);stroke-width:1px;"/>
        <path d="M169.9,184.7L169.9,144.2L136,123.9L136,164.8L169.9,184.7Z" style="fill:rgb(244,244,245);fill-rule:nonzero;stroke:rgb(191,191,191);stroke-width:1px;"/>
        <path d="M205.1,123.9L169.9,144.2L171.2,224.8L205.1,203.8L205.1,123.9Z" style="fill:none;fill-rule:nonzero;stroke:rgb(191,191,191);stroke-width:1px;"/>
        <path d="M170.9,103.8L136,123.9L169.9,144.2L205.1,123.9L170.9,103.8Z" style="fill:none;fill-rule:nonzero;stroke:rgb(191,191,191);stroke-width:1px;"/>
        <path d="M205.1,42.5L170.6,22.8L99.3,62.1L136,83.8L205.1,42.5Z" style="fill:none;fill-rule:nonzero;stroke:rgb(191,191,191);stroke-width:1px;"/>
        <path d="M240.4,103.8L274.9,83.8L205.1,42.5L170.6,63.2L240.4,103.8Z" style="fill:none;fill-rule:nonzero;stroke:rgb(191,191,191);stroke-width:1px;"/>
        <path d="M239.9,143.3L310.7,103.8L310.7,143.3L276.5,164.5L275.3,204.9L239.9,224.8L239.9,143.3Z" style="fill:none;fill-rule:nonzero;stroke:rgb(191,191,191);stroke-width:1px;"/>
        <path d="M381.2,184.4L310.7,143.3L276.5,164.5L345.7,204.9L381.2,184.4Z" style="fill:none;fill-rule:nonzero;stroke:rgb(191,191,191);stroke-width:1px;"/>
        <path d="M416.3,123.9L381.3,143.3L381.2,184.4L416.3,164.3L416.3,123.9Z" style="fill:none;fill-rule:nonzero;stroke:rgb(191,191,191);stroke-width:1px;"/>
        <path d="M380.2,103.8L416.3,123.9L416.3,82.8L381.2,63L380.2,103.8Z" style="fill:none;fill-rule:nonzero;stroke:rgb(191,191,191);stroke-width:1px;"/>
        <path d="M486.1,42.5L450.1,22.8L381.2,63L416.3,82.8L486.1,42.5Z" style="fill:none;fill-rule:nonzero;stroke:rgb(191,191,191);stroke-width:1px;"/>
        <path d="M555.8,82.8L486.1,42.5L452.2,62.1L521.1,103.8L555.8,82.8Z" style="fill:none;fill-rule:nonzero;stroke:rgb(191,191,191);stroke-width:1px;"/>
        <path d="M555.8,42.5L555.8,82.8L521.1,103.8L521.1,143.3L591.6,103.8L591.6,22.8L555.8,42.5Z" style="fill:none;fill-rule:nonzero;stroke:rgb(191,191,191);stroke-width:1px;"/>
        <path d="M661.8,143.3L591.6,103.8L591.6,145L661.8,185.3L661.8,143.3Z" style="fill:rgb(244,244,245);fill-rule:nonzero;stroke:rgb(191,191,191);stroke-width:1px;"/>
        <path d="M696.3,123.9L661.8,143.3L661.8,185.3L696.3,164.6L696.3,123.9Z" style="fill:none;fill-rule:nonzero;stroke:rgb(191,191,191);stroke-width:1px;"/>
        <path d="M731.5,185.3L696.3,164.6L626.7,204.9L660.5,225.4L731.5,185.3Z" style="fill:none;fill-rule:nonzero;stroke:rgb(191,191,191);stroke-width:1px;"/>
        <path d="M696.3,324.9L696.3,285.3L661.8,265.4L660.5,225.4L626.7,204.9L626.7,285.8L696.3,324.9Z" style="fill:rgb(249,249,250);fill-rule:nonzero;stroke:rgb(191,191,191);stroke-width:1px;"/>
        <path d="M767,286L802,264.9L732.8,225.4L661.8,265.4L696.3,285.3L731.9,265.9L767,286Z" style="fill:none;fill-rule:nonzero;stroke:rgb(191,191,191);stroke-width:1px;"/>
        <path d="M589.8,264.9L626.7,285.8L626.7,204.9L557.8,164.3L556.3,204.9L591.5,225.4L589.8,264.9Z" style="fill:rgb(249,249,250);fill-rule:nonzero;stroke:rgb(191,191,191);stroke-width:1px;"/>
        <path d="M696.3,447.9L661.5,467.7L626.7,447.9L591.5,467.7L657.4,507.8L730.3,468L696.3,447.9Z" style="fill:none;fill-rule:nonzero;stroke:rgb(191,191,191);stroke-width:1px;"/>
        <path d="M731.9,386.3L731.9,346.5L661.8,386.3L661.5,467.7L696.3,447.9L696.7,407.1L731.9,386.3Z" style="fill:none;fill-rule:nonzero;stroke:rgb(191,191,191);stroke-width:1px;"/>
        <path d="M802,427.2L731.9,386.3L696.7,407.1L767.7,447.9L802,427.2Z" style="fill:none;fill-rule:nonzero;stroke:rgb(191,191,191);stroke-width:1px;"/>
        <path d="M591.5,306L591.5,346.5L661.8,386.3L660.9,346.5L591.5,306Z" style="fill:rgb(249,249,250);fill-rule:nonzero;stroke:rgb(191,191,191);stroke-width:1px;"/>
        <path d="M556.3,324.9L521.9,307L589.8,264.9L626.7,285.8L556.3,324.9Z" style="fill:none;fill-rule:nonzero;stroke:rgb(191,191,191);stroke-width:1px;"/>
        <path d="M520.6,264.9L486.2,285.8L486.2,365.9L521.9,346.6L520.6,264.9Z" style="fill:none;fill-rule:nonzero;stroke:rgb(191,191,191);stroke-width:1px;"/>
        <path d="M556.3,367.6L521.9,346.6L486.2,365.9L521.9,386.3L556.3,367.6Z" style="fill:none;fill-rule:nonzero;stroke:rgb(191,191,191);stroke-width:1px;"/>
        <path d="M556.3,407.1L556.3,367.6L521.9,386.3L521.9,426.8L556.3,407.1Z" style="fill:none;fill-rule:nonzero;stroke:rgb(191,191,191);stroke-width:1px;"/>
        <path d="M591.5,427.3L556.3,407.1L486.2,446.9L521.3,467.7L591.5,427.3Z" style="fill:none;fill-rule:nonzero;stroke:rgb(191,191,191);stroke-width:1px;"/>
        <path d="M451.4,388.3L451.4,346.6L380.6,386.3L380.6,467.7L416,447.9L416,407.2L451.4,388.3Z" style="fill:none;fill-rule:nonzero;stroke:rgb(191,191,191);stroke-width:1px;"/>
        <path d="M347.8,368.1L380.6,386.3L380.6,346.6L348.5,328.4L347.8,368.1Z" style="fill:rgb(244,244,245);fill-rule:nonzero;stroke:rgb(191,191,191);stroke-width:1px;"/>
        <path d="M416,285.8L450.1,265.2L451.4,346.6L380.6,386.3L380.6,346.6L416.3,325.6L416,285.8Z" style="fill:none;fill-rule:nonzero;stroke:rgb(191,191,191);stroke-width:1px;"/>
        <path d="M380.2,223.2L345.7,204.9L345.7,285.8L416.3,325.6L416,285.8L380.2,264.9L380.2,223.2Z" style="fill:none;fill-rule:nonzero;stroke:rgb(191,191,191);stroke-width:1px;"/>
        <path d="M348.5,328.4L383.5,307.1" style="fill:none;fill-rule:nonzero;stroke:rgb(191,191,191);stroke-width:1px;"/>
        <path d="M29.7,22.8L29.7,103.8L65.2,123.9L65,42.7L29.7,22.8Z" style="fill:rgb(244,244,245);fill-rule:nonzero;stroke:rgb(191,191,191);stroke-width:1px;"/>
        <path d="M239.9,143.3L240.4,103.8L170.6,63.2L170.9,103.8L239.9,143.3Z" style="fill:rgb(244,244,245);fill-rule:nonzero;stroke:rgb(191,191,191);stroke-width:1px;"/>
        <path d="M310.5,22.8L276.5,42.5L274.9,83.8L240.4,103.8L239.9,143.3L310.7,103.8L310.5,22.8Z" style="fill:none;fill-rule:nonzero;stroke:rgb(191,191,191);stroke-width:1px;"/>
        <path d="M239.9,224.8L205.1,203.8L205.1,123.9L239.9,143.3L239.9,224.8Z" style="fill:rgb(244,244,245);fill-rule:nonzero;stroke:rgb(191,191,191);stroke-width:1px;"/>
        <path d="M275.3,204.9L310.7,224.8L310.7,265.2L345.7,285.8L345.7,204.9L276.5,164.5L275.3,204.9Z" style="fill:rgb(249,249,250);fill-rule:nonzero;stroke:rgb(191,191,191);stroke-width:1px;"/>
        <path d="M310.7,103.8L346,123.5L381.3,143.3L381.2,184.4L310.7,143.3L310.7,103.8Z" style="fill:rgb(244,244,245);fill-rule:nonzero;stroke:rgb(191,191,191);stroke-width:1px;"/>
        <path d="M380.2,103.8L346,123.5L381.3,143.3L416.3,123.9L380.2,103.8Z" style="fill:none;fill-rule:nonzero;stroke:rgb(191,191,191);stroke-width:1px;"/>
        <path d="M451.4,103.2L452.2,62.1L521.1,103.8L521.1,143.3L451.4,103.2Z" style="fill:rgb(244,244,245);fill-rule:nonzero;stroke:rgb(191,191,191);stroke-width:1px;"/>
        <path d="M416.3,123.9L451.4,103.2L452.2,62.1L416.3,82.8L416.3,123.9Z" style="fill:none;fill-rule:nonzero;stroke:rgb(191,191,191);stroke-width:1px;"/>
        <path d="M557.8,164.3L591.6,145L591.6,103.8L521.1,143.3L521.1,225.2L556.3,204.9L557.8,164.3Z" style="fill:none;fill-rule:nonzero;stroke:rgb(191,191,191);stroke-width:1px;"/>
        <path d="M486,204.9L521.1,225.2L521.1,143.3L486.1,123.5L486,204.9Z" style="fill:rgb(249,249,250);fill-rule:nonzero;stroke:rgb(191,191,191);stroke-width:1px;"/>
        <path d="M450.1,265.2L416.3,245.9L380.2,264.9L416,285.8L450.1,265.2Z" style="fill:rgb(244,244,245);fill-rule:nonzero;stroke:rgb(191,191,191);stroke-width:1px;"/>
        <path d="M451.4,225.4L486,204.9L521.1,225.2L556.3,204.9L591.5,225.4L520.6,264.9L451.4,225.4Z" style="fill:none;fill-rule:nonzero;stroke:rgb(191,191,191);stroke-width:1px;"/>
        <path d="M416.3,245.9L451.4,225.4L520.6,264.9L486.2,285.8L416.3,245.9Z" style="fill:rgb(244,244,245);fill-rule:nonzero;stroke:rgb(191,191,191);stroke-width:1px;"/>
        <path d="M451.4,184.7L380.2,223.2L380.2,264.9L451.4,225.4L451.4,184.7Z" style="fill:none;fill-rule:nonzero;stroke:rgb(191,191,191);stroke-width:1px;"/>
        <path d="M451.4,388.3L521.9,426.8L521.9,386.3L451.4,346.6L451.4,388.3Z" style="fill:rgb(249,249,250);fill-rule:nonzero;stroke:rgb(191,191,191);stroke-width:1px;"/>
        <path d="M556.3,367.6L556.3,324.9L521.9,307L521.9,346.6L556.3,367.6Z" style="fill:rgb(244,244,245);fill-rule:nonzero;stroke:rgb(191,191,191);stroke-width:1px;"/>
        <path d="M591.5,346.5L591.5,305.3L556.3,324.9L556.3,367.6L591.5,346.5Z" style="fill:none;fill-rule:nonzero;stroke:rgb(191,191,191);stroke-width:1px;"/>
        <path d="M591.5,386.3L626.6,367.6L591.5,346.5L556.3,367.6L591.5,386.3Z" style="fill:rgb(244,244,245);fill-rule:nonzero;stroke:rgb(191,191,191);stroke-width:1px;"/>
        <path d="M591.5,467.7L591.5,386.3L626.6,367.6L626.7,447.9L591.5,467.7Z" style="fill:none;fill-rule:nonzero;stroke:rgb(191,191,191);stroke-width:1px;"/>
        <path d="M451.4,184.7L416.3,164.3L345.7,204.9L380.2,223.2L451.4,184.7Z" style="fill:none;fill-rule:nonzero;stroke:rgb(191,191,191);stroke-width:1px;"/>
        <path d="M451.4,144.1L486.1,123.5L451.4,103.2L416.3,123.9L451.4,144.1Z" style="fill:none;fill-rule:nonzero;stroke:rgb(191,191,191);stroke-width:1px;"/>
        <path d="M451.4,184.7L451.4,144.1L416.3,123.9L416.3,164.3L451.4,184.7Z" style="fill:rgb(244,244,245);fill-rule:nonzero;stroke:rgb(191,191,191);stroke-width:1px;"/>
        <path d="M346,42.5L380.2,22.8L381.2,63L380.2,103.8L346,123.5L346,42.5Z" style="fill:none;fill-rule:nonzero;stroke:rgb(191,191,191);stroke-width:1px;"/>
        <path d="M310.5,22.8L346,42.5L346,123.5L310.7,103.8L310.5,22.8Z" style="fill:rgb(249,249,250);fill-rule:nonzero;stroke:rgb(191,191,191);stroke-width:1px;"/>
        <path d="M696.3,324.9L660.9,346.5L661.8,386.3L731.9,346.5L731.9,265.9L696.3,285.3L696.3,324.9Z" style="fill:none;fill-rule:nonzero;stroke:rgb(191,191,191);stroke-width:1px;"/>
        <path d="M766.8,366.4L767,286L731.9,265.9L731.9,346.5L766.8,366.4Z" style="fill:rgb(244,244,245);fill-rule:nonzero;stroke:rgb(191,191,191);stroke-width:1px;"/>
        <path d="M802,346.1L766.8,366.4L767,286L802,264.9L802,346.1Z" style="fill:none;fill-rule:nonzero;stroke:rgb(191,191,191);stroke-width:1px;"/>
        <path d="M802,386.3L802,427.2L731.9,386.3L731.9,346.5L802,386.3Z" style="fill:rgb(244,244,245);fill-rule:nonzero;stroke:rgb(191,191,191);stroke-width:1px;"/>
        <path d="M836.9,367.2L802,346.1L766.8,366.4L802,386.3L836.9,367.2Z" style="fill:none;fill-rule:nonzero;stroke:rgb(191,191,191);stroke-width:1px;"/>
        <path d="M416,407.2L486.2,446.9L521.9,426.8L451.4,388.3L416,407.2Z" style="fill:none;fill-rule:nonzero;stroke:rgb(191,191,191);stroke-width:1px;"/>
        <path d="M171.2,224.8L100.2,265.2L100.2,225.2L169.9,184.7L171.2,224.8Z" style="fill:none;fill-rule:nonzero;stroke:rgb(191,191,191);stroke-width:1px;"/>
        <path d="M65,204.9L136,164.8L169.9,184.7L100.2,225.2L65,204.9Z" style="fill:none;fill-rule:nonzero;stroke:rgb(191,191,191);stroke-width:1px;"/>
        <path d="M100.2,265.2L100.2,225.2L65,204.9L65.5,245.2L100.2,265.2" style="fill:rgb(244,244,245);fill-rule:nonzero;stroke:rgb(191,191,191);stroke-width:1px;"/>
        <path d="M836.9,407.1L836.9,367.2L802,386.3L802,427.2L836.9,407.1Z" style="fill:none;fill-rule:nonzero;stroke:rgb(191,191,191);stroke-width:1px;"/>
        <path d="M802,467.7L767.7,447.9L836.9,407.1L866.6,425.8L802,467.7Z" style="fill:none;fill-rule:nonzero;stroke:rgb(191,191,191);stroke-width:1px;"/>
        <path d="M729.9,513.9L766.9,536.3L767.7,447.9L696.7,407.1L696.3,447.9L730.3,468L729.9,513.9Z" style="fill:rgb(244,244,245);fill-rule:nonzero;stroke:rgb(191,191,191);stroke-width:1px;"/>
        <path d="M731.5,185.3L732.8,225.4L661.8,265.4L660.5,225.4L731.5,185.3Z" style="fill:none;fill-rule:nonzero;stroke:rgb(191,191,191);stroke-width:1px;"/>
        <path d="M591.6,103.8L591.6,22.8L626.6,42.5L626.6,123.5L591.6,103.8Z" style="fill:none;fill-rule:nonzero;stroke:rgb(191,191,191);stroke-width:1px;"/>
        <path d="M696.3,123.9L660.9,103.8L626.6,123.5L661.8,143.3L696.3,123.9Z" style="fill:none;fill-rule:nonzero;stroke:rgb(191,191,191);stroke-width:1px;"/>
        <path d="M660.9,22.8L626.6,42.5L626.6,123.5L660.9,103.8L660.9,22.8Z" style="fill:none;fill-rule:nonzero;stroke:rgb(191,191,191);stroke-width:1px;"/>
        <path d="M801.8,555.9L802,467.7L767.7,447.9L766.9,536.3L801.8,555.9Z" style="fill:rgb(244,244,245);fill-rule:nonzero;stroke:rgb(191,191,191);stroke-width:1px;"/>
    </g>
</svg>
